<svg xmlns="http://www.w3.org/2000/svg" class="icon" viewBox="0 0 1575 1024" width="64" height="64" t="1571831076517" p-id="5364" version="1.1"><path d="M 1466.28 0 H 115.473 C 54.468 0 6.536 47.932 6.536 108.936 v 413.958 c 0 61.004 47.932 108.936 108.936 108.936 h 1350.81 c 61.004 0 108.936 -47.932 108.936 -108.936 V 108.936 C 1575.22 47.932 1525.11 0 1466.28 0 Z M 115.473 43.574 h 1350.81 c 37.038 0 65.362 28.324 65.362 65.362 v 305.021 H 50.11 v -305.02 c 0 -37.04 28.323 -65.363 65.361 -65.363 Z m 588.256 544.681 H 246.196 v -43.574 h 1089.36 v 43.574 h -631.83 Z m 762.553 0 h -87.15 v -87.149 H 202.622 v 87.15 h -87.149 c -37.038 0 -65.361 -28.324 -65.361 -65.362 v -65.362 h 1481.53 v 65.362 c 0 37.038 -30.503 65.361 -65.362 65.361 Z" p-id="5365" /><path d="M 115.472 283.234 H 289.77 v 43.575 H 115.472 Z m 217.873 0 h 43.574 v 43.575 h -43.574 Z m -21.788 435.745 h -43.574 c 0 17.43 -6.536 23.966 -17.43 37.038 c -13.072 13.072 -26.144 30.502 -26.144 65.362 c 0 32.68 15.25 50.11 26.144 65.361 c 10.894 10.894 17.43 19.609 17.43 37.039 s -6.536 23.966 -17.43 34.86 C 237.481 971.71 224.41 989.14 224.41 1024 h 43.574 c 0 -17.43 6.536 -26.145 17.43 -37.038 c 13.072 -13.073 26.144 -30.502 26.144 -65.362 s -15.25 -50.11 -26.144 -65.362 c -10.894 -10.893 -17.43 -19.608 -17.43 -37.038 s 6.536 -23.966 17.43 -37.038 c 10.893 -13.073 26.144 -30.502 26.144 -63.183 Z m 261.447 0 H 529.43 c 0 17.43 -6.536 23.966 -17.43 37.038 c -13.072 13.072 -26.145 30.502 -26.145 65.362 c 0 32.68 15.251 50.11 26.145 65.361 c 10.894 10.894 17.43 19.609 17.43 37.039 s -6.536 23.966 -17.43 34.86 c -13.072 13.072 -26.145 30.501 -26.145 65.361 h 43.575 c 0 -17.43 6.536 -26.145 17.43 -37.038 c 13.072 -13.073 26.144 -30.502 26.144 -65.362 s -15.25 -50.11 -26.144 -65.362 c -10.894 -10.893 -17.43 -19.608 -17.43 -37.038 s 6.536 -23.966 17.43 -37.038 c 10.893 -13.073 26.144 -30.502 26.144 -63.183 Z m 261.447 0 h -43.574 c 0 17.43 -6.537 23.966 -17.43 37.038 c -13.073 13.072 -26.145 30.502 -26.145 65.362 c 0 32.68 15.251 50.11 26.145 65.361 c 10.893 10.894 17.43 19.609 17.43 37.039 s -6.537 23.966 -17.43 34.86 c -13.073 13.072 -26.145 30.501 -26.145 65.361 h 43.575 c 0 -17.43 6.536 -26.145 17.43 -37.038 c 13.072 -13.073 26.144 -30.502 26.144 -65.362 s -15.251 -50.11 -26.145 -65.362 c -10.893 -10.893 -17.43 -19.608 -17.43 -37.038 s 6.537 -23.966 17.43 -37.038 c 10.894 -13.073 26.145 -30.502 26.145 -63.183 Z m 261.447 0 h -43.575 c 0 17.43 -6.536 23.966 -17.43 37.038 c -13.072 13.072 -26.144 30.502 -26.144 65.362 c 0 32.68 15.251 50.11 26.145 65.361 c 10.893 10.894 17.43 19.609 17.43 37.039 s -6.537 23.966 -17.43 34.86 c -13.073 13.072 -26.145 30.501 -26.145 65.361 h 43.574 c 0 -17.43 6.537 -26.145 17.43 -37.038 c 13.073 -13.073 26.145 -30.502 26.145 -65.362 s -15.251 -50.11 -26.145 -65.362 c -10.893 -10.893 -17.43 -19.608 -17.43 -37.038 s 6.537 -23.966 17.43 -37.038 c 10.894 -13.073 26.145 -30.502 26.145 -63.183 Z m 261.447 0 h -43.575 c 0 17.43 -6.536 23.966 -17.43 37.038 c -13.072 13.072 -26.144 30.502 -26.144 65.362 c 0 32.68 15.25 50.11 26.144 65.361 c 10.894 10.894 17.43 19.609 17.43 37.039 s -6.536 23.966 -17.43 34.86 c -13.072 13.072 -26.144 30.501 -26.144 65.361 h 43.574 c 0 -17.43 6.536 -26.145 17.43 -37.038 c 13.072 -13.073 26.145 -30.502 26.145 -65.362 s -15.251 -50.11 -26.145 -65.362 c -10.894 -10.893 -17.43 -19.608 -17.43 -37.038 s 6.536 -23.966 17.43 -37.038 c 10.894 -13.073 26.145 -30.502 26.145 -63.183 Z" p-id="5366" /></svg>