<svg xmlns="http://www.w3.org/2000/svg" class="icon" viewBox="0 0 1024 1024" width="64" height="64" t="1571831451420" p-id="6144" version="1.1"><path d="M 148.769 500.624 H 67.1512 c -12.9977 0 -23.5337 -10.5361 -23.5337 -23.5337 s 10.5361 -23.5337 23.5337 -23.5337 h 81.6174 c 12.9977 0 23.5337 10.5361 23.5337 23.5337 s -10.5361 23.5337 -23.5337 23.5337 Z M 958.974 500.624 h -81.6174 c -12.9977 0 -23.5337 -10.5361 -23.5337 -23.5337 s 10.5361 -23.5337 23.5337 -23.5337 h 81.6174 c 12.9977 0 23.5337 10.5361 23.5337 23.5337 s -10.5372 23.5337 -23.5337 23.5337 Z M 197.756 815.93 a 23.4584 23.4584 0 0 1 -16.6407 -6.89185 c -9.1911 -9.1911 -9.1911 -24.0927 0 -33.2814 l 57.7118 -57.713 c 9.1911 -9.1911 24.0915 -9.19228 33.2814 -0.001177 s 9.1911 24.0927 0 33.2814 l -57.7118 57.713 a 23.4631 23.4631 0 0 1 -16.6407 6.89303 Z M 770.657 243.029 a 23.4667 23.4667 0 0 1 -16.6419 -6.89303 c -9.18993 -9.1911 -9.18993 -24.0915 0 -33.2814 l 57.713 -57.713 c 9.1911 -9.1911 24.0927 -9.1911 33.2826 0 c 9.18993 9.1911 9.18993 24.0915 0 33.2814 l -57.713 57.713 a 23.462 23.462 0 0 1 -16.6407 6.89303 Z M 513.061 136.33 c -12.9977 0 -23.5337 -10.5361 -23.5337 -23.5337 V 31.1787 c 0 -12.9977 10.5361 -23.5337 23.5337 -23.5337 s 23.5337 10.5361 23.5337 23.5337 v 81.6174 c 0 12.9977 -10.5361 23.5337 -23.5337 23.5337 Z M 828.369 815.93 a 23.4655 23.4655 0 0 1 -16.6419 -6.89185 l -57.713 -57.713 c -9.18993 -9.1911 -9.18993 -24.0927 0 -33.2826 c 9.1911 -9.1911 24.0927 -9.1911 33.2826 0 l 57.713 57.713 c 9.18993 9.1911 9.18993 24.0927 0 33.2826 a 23.4561 23.4561 0 0 1 -16.6407 6.89185 Z M 255.468 243.029 a 23.4561 23.4561 0 0 1 -16.6407 -6.89303 l -57.7118 -57.713 c -9.1911 -9.1911 -9.1911 -24.0915 0 -33.2814 c 9.1911 -9.1911 24.0915 -9.1911 33.2814 0 l 57.7118 57.713 c 9.1911 9.1911 9.1911 24.0915 0 33.2814 a 23.4667 23.4667 0 0 1 -16.6407 6.89303 Z" p-id="6145" /><path d="M 400.071 937.073 c -10.4878 0 -20.0496 -7.06012 -22.7771 -17.6868 c -3.23236 -12.5894 4.35256 -25.4153 16.9419 -28.6476 l 229.094 -58.8167 c 12.5847 -3.22765 25.4153 4.35256 28.6476 16.9419 c 3.23118 12.5894 -4.35374 25.4153 -16.9419 28.6476 l -229.094 58.8167 a 23.6138 23.6138 0 0 1 -5.87049 0.744843 Z" p-id="6146" /><path d="M 400.071 853.273 c -10.4878 0 -20.0496 -7.06012 -22.7771 -17.6868 c -3.23236 -12.5894 4.35256 -25.4153 16.9419 -28.6476 l 213.338 -54.7724 c 6.79301 -52.0272 20.925 -81.8456 21.5828 -83.2106 a 23.5337 23.5337 0 0 1 8.25446 -9.43938 c 63.1951 -41.6465 100.924 -111.628 100.924 -187.2 c 0 -123.524 -100.493 -224.016 -224.016 -224.016 S 290.3 348.792 290.3 472.316 c 0 83.5765 46.0167 159.64 120.091 198.509 c 11.5092 6.03876 15.9429 20.2649 9.90417 31.7741 c -6.03876 11.5092 -20.2625 15.9465 -31.7741 9.90417 c -89.6177 -47.0239 -145.289 -139.059 -145.289 -240.188 c 0 -72.4098 28.1969 -140.485 79.3993 -191.686 c 51.2012 -51.2012 119.276 -79.3993 191.686 -79.3993 c 72.4086 0 140.485 28.1981 191.685 79.3993 c 51.2012 51.2012 79.3993 119.276 79.3993 191.686 c 0 89.0022 -43.2338 171.589 -116.026 222.389 c -4.16547 10.8832 -13.1389 38.0894 -16.7537 78.3179 a 23.5349 23.5349 0 0 1 -17.5868 20.6885 l -229.094 58.8179 a 23.6667 23.6667 0 0 1 -5.87049 0.743666 Z" p-id="6147" /><path d="M 511.84 1017.39 c -27.4686 0 -54.2606 -9.59941 -75.4398 -27.0309 c -10.036 -8.25916 -11.4762 -23.0901 -3.21706 -33.1249 c 8.25916 -10.036 23.0901 -11.4774 33.1261 -3.21588 c 12.9612 10.6655 28.7065 16.3042 45.5307 16.3042 c 16.6207 0 32.8166 -5.81166 45.6037 -16.3665 c 10.0254 -8.27446 24.8575 -6.85302 33.1308 3.16882 c 8.27329 10.0254 6.8542 24.8575 -3.16882 33.1308 c -21.1992 17.4985 -48.0359 27.1344 -75.5657 27.1344 Z" p-id="6148" /></svg>