<svg xmlns="http://www.w3.org/2000/svg" class="icon" viewBox="0 0 1024 1024" width="128" height="128" t="1574680322107" p-id="3830" version="1.1"><path d="M 512 1024 C 229.222 1024 0 794.778 0 512 S 229.222 0 512 0 s 512 229.222 512 512 s -229.222 512 -512 512 Z m 51.2 -460.8 h 153.856 c 28.16 0 50.944 -22.7328 50.944 -51.2 c 0 -28.2624 -23.3472 -51.2 -50.944 -51.2 H 563.2 V 306.944 A 50.944 50.944 0 0 0 512 256 c -28.2624 0 -51.2 23.3472 -51.2 50.944 V 460.8 H 306.944 A 50.944 50.944 0 0 0 256 512 c 0 28.2624 23.3472 51.2 50.944 51.2 H 460.8 v 153.856 c 0 28.16 22.7328 50.944 51.2 50.944 c 28.2624 0 51.2 -23.3472 51.2 -50.944 V 563.2 Z" p-id="3831" /></svg>