<svg xmlns="http://www.w3.org/2000/svg" class="icon" viewBox="0 0 1024 1024" width="16" height="16" t="1574671383492" p-id="1888" version="1.1"><path d="M 562.176 907.776 c -13.312 0 -25.6 -3.072 -37.376 -9.216 l -101.888 -56.832 c -25.088 -13.312 -40.448 -39.424 -40.448 -68.096 V 450.048 c 0 -4.608 -2.56 -9.728 -6.144 -12.288 l -235.52 -188.928 l -2.56 -3.072 c -22.016 -22.016 -27.136 -54.784 -14.848 -83.456 s 39.424 -46.08 70.656 -46.08 H 829.44 c 30.72 0 58.368 17.92 71.168 46.08 s 7.168 60.416 -13.824 83.456 l -3.072 3.072 L 645.12 439.808 c -3.584 3.072 -5.632 7.68 -5.632 12.288 v 377.856 c 0.512 43.52 -34.304 77.824 -77.312 77.824 Z M 181.248 202.752 l 234.496 187.392 c 18.432 14.848 29.184 36.864 29.184 60.416 v 323.584 c 0 5.632 2.56 11.264 7.68 13.824 l 101.888 55.808 c 4.608 2.56 10.752 2.56 15.872 0 c 4.608 -2.56 7.68 -8.192 7.68 -13.824 V 452.608 c 0 -23.552 10.24 -45.568 28.672 -60.416 l 235.008 -189.44 c 3.584 -4.608 4.096 -11.264 1.536 -16.384 s -7.68 -8.704 -13.824 -8.704 H 194.048 c -6.144 0 -11.264 3.072 -13.824 8.704 c -3.072 5.632 -2.048 11.776 1.024 16.384 Z" p-id="1889" /><path d="M 876.032 524.288 H 701.44 c -16.896 0 -30.72 -13.824 -30.72 -30.72 s 13.824 -30.72 30.72 -30.72 h 174.592 c 16.896 0 30.72 13.824 30.72 30.72 c 0.512 16.896 -13.312 30.72 -30.72 30.72 Z m 0 115.712 H 701.44 c -16.896 0 -30.72 -13.824 -30.72 -30.72 s 13.824 -30.72 30.72 -30.72 h 174.592 c 16.896 0 30.72 13.824 30.72 30.72 c 0.512 16.896 -13.312 30.72 -30.72 30.72 Z m 0 115.2 H 701.44 c -16.896 0 -30.72 -13.824 -30.72 -30.72 s 13.824 -30.72 30.72 -30.72 h 174.592 c 16.896 0 30.72 13.824 30.72 30.72 s -13.312 30.72 -30.72 30.72 Z" p-id="1890" /></svg>