<svg xmlns="http://www.w3.org/2000/svg" class="icon" viewBox="0 0 1024 1024" width="16" height="16" t="1574671560840" p-id="2609" version="1.1"><path d="M 651.696 742.844 c -85.5351 57.5415 -178.125 76.3929 -277.425 56.0936 c -88.4126 -18.0747 -161.426 -63.181 -215.451 -136.123 C 51.5808 518.027 65.9326 326.545 183.559 200.382 c 122.944 -131.867 326.551 -154.499 478.701 -42.7415 c 77.8163 57.1588 123.64 135.338 139.437 230.149 c 15.807 94.8738 -4.0349 182.783 -58.4993 263.526 c 1.37225 1.01614 2.90107 1.87981 4.09732 3.07504 c 56.3402 56.291 112.593 112.667 169.003 168.887 c 14.6885 14.6394 22.8535 31.8965 21.2797 52.6982 c -2.08959 27.617 -16.8866 47.2368 -42.2298 57.0851 c -25.1089 9.75825 -48.649 5.04285 -68.2422 -14.4348 c -46.4376 -46.1665 -92.8466 -92.3616 -139.182 -138.632 C 675.744 767.832 663.879 755.354 651.696 742.844 Z M 446.46 675.724 c 125.046 2.14178 229.878 -104.636 229.975 -229.332 c 0.098237 -124.311 -104.976 -229.576 -229.502 -229.648 c -125.502 -0.072655 -228.53 105.613 -229.947 226.593 C 215.503 570.073 321.572 677.681 446.46 675.724 Z" p-id="2610" /></svg>