<svg xmlns="http://www.w3.org/2000/svg" class="icon" viewBox="0 0 1024 1024" width="16" height="16" t="1571818338353" p-id="2577" version="1.1"><path d="M 823.491 467.092 c -36.1729 -100.321 -124.505 -177.318 -234.305 -201.828 c 28.1379 -40.3602 74.7454 -66.8894 127.654 -66.8894 c 86.0273 0 155.74 69.7404 155.74 155.726 C 872.609 398.731 853.581 438.695 823.491 467.092 L 823.491 467.092 L 823.491 467.092 Z M 524.015 204.197 l 0 97.9202 c 149.438 6.09788 268.788 128.815 268.788 279.726 c 0 63.0305 -21.0463 120.945 -56.1273 167.783 l 64.9523 112.501 l -53.9733 31.1392 l -55.5563 -96.2829 c -48.6408 40.6467 -111.234 65.157 -179.582 65.157 c -67.967 0 -130.26 -24.1817 -178.792 -64.4488 l -57.0278 98.7531 l -53.9313 -31.1392 l 66.2488 -114.792 c -35.5057 -46.9626 -56.8232 -105.287 -56.8232 -168.685 c 0 -149.915 117.78 -271.951 265.744 -279.574 l 0 -98.0849 c -15.1122 -5.40101 -26.0646 -19.5042 -26.0646 -36.4737 c 0 -21.6194 17.5272 -39.12 39.1189 -39.12 c 21.6194 0 39.1189 17.5139 39.1189 39.12 c 0 16.9951 -10.9791 31.0829 -26.0933 36.4993 l 0 0 L 524.015 204.197 Z M 294.471 581.844 c 0 120.412 97.607 218.018 218.018 218.018 s 218.018 -97.5794 218.018 -218.018 c 0 -120.398 -97.607 -218.006 -218.018 -218.006 S 294.471 461.445 294.471 581.844 L 294.471 581.844 L 294.471 581.844 Z M 577.852 628.969 l -78.2788 0 c -14.3908 0 -26.0646 -11.6892 -26.0646 -26.079 L 473.508 498.559 c 0 -14.4174 11.6749 -26.0933 26.0646 -26.0933 c 14.445 0 26.0933 11.6749 26.0933 26.0933 l 0 78.2502 l 52.1845 0 c 14.4041 0 26.0646 11.6616 26.0646 26.1066 c 0 14.3631 -11.6616 26.0513 -26.0646 26.0513 l 0 0 L 577.852 628.969 Z M 205.388 467.092 c -30.0893 -28.3978 -49.131 -68.3753 -49.131 -113.006 c 0 -85.9997 69.7271 -155.726 155.74 -155.726 c 52.9234 0 99.5155 26.5425 127.654 66.9038 C 329.866 289.775 241.562 366.77 205.388 467.092 L 205.388 467.092 L 205.388 467.092 Z" p-id="2578" /></svg>