<svg xmlns="http://www.w3.org/2000/svg" class="icon" viewBox="0 0 1024 1024" width="16" height="16" t="1571818433302" p-id="3306" version="1.1"><path d="M 675.84 645.12 m -35.84 0 a 35.84 35.84 0 1 0 71.68 0 a 35.84 35.84 0 1 0 -71.68 0 Z" p-id="3307" /><path d="M 675.84 409.6 m -35.84 0 a 35.84 35.84 0 1 0 71.68 0 a 35.84 35.84 0 1 0 -71.68 0 Z" p-id="3308" /><path d="M 368.64 0 H 122.88 C 54.784 0 0 54.784 0 122.88 v 778.24 c 0 68.096 54.784 122.88 122.88 122.88 h 245.76 c 68.096 0 122.88 -54.784 122.88 -122.88 V 122.88 C 491.52 54.784 436.736 0 368.64 0 Z m 61.44 901.12 c 0 33.792 -27.648 61.44 -61.44 61.44 H 122.88 c -33.792 0 -61.44 -27.648 -61.44 -61.44 V 122.88 c 0 -33.792 27.648 -61.44 61.44 -61.44 h 245.76 c 33.792 0 61.44 27.648 61.44 61.44 v 778.24 Z M 901.12 0 h -245.76 c -68.096 0 -122.88 54.784 -122.88 122.88 v 778.24 c 0 68.096 54.784 122.88 122.88 122.88 h 245.76 c 68.096 0 122.88 -54.784 122.88 -122.88 V 122.88 c 0 -68.096 -54.784 -122.88 -122.88 -122.88 Z m 61.44 901.12 c 0 33.792 -27.648 61.44 -61.44 61.44 h -245.76 c -33.792 0 -61.44 -27.648 -61.44 -61.44 v -348.16 h 368.64 v 348.16 Z m -368.64 -409.6 V 122.88 c 0 -33.792 27.648 -61.44 61.44 -61.44 h 245.76 c 33.792 0 61.44 27.648 61.44 61.44 v 368.64 h -368.64 Z" p-id="3309" /><path d="M 102.4 107.52 h 286.72 v 61.44 H 102.4 Z M 102.4 215.04 h 286.72 v 61.44 H 102.4 Z M 102.4 322.56 h 286.72 v 61.44 H 102.4 Z" p-id="3310" /></svg>