<svg xmlns="http://www.w3.org/2000/svg" class="icon" viewBox="0 0 1024 1024" width="16" height="16" t="1571818848185" p-id="4634" version="1.1"><path d="M 512 1024 C 229.23 1024 0 794.697 0 512 C 0 229.303 229.23 0 512 0 C 794.77 0 1024 229.303 1024 512 C 1024 794.697 794.77 1024 512 1024 L 512 1024 Z M 721.079 302.811 C 706.67 288.549 683.374 288.549 668.965 302.811 L 511.781 460.069 L 356.864 305.006 C 342.565 290.743 319.378 290.743 305.152 305.006 C 290.853 319.269 290.853 342.674 305.152 356.937 L 460.069 511.634 L 304.055 667.794 C 289.682 682.057 289.682 705.463 304.055 720.091 C 318.464 734.354 341.797 734.354 356.206 720.091 L 512.219 563.931 L 667.136 718.994 C 681.435 733.257 704.622 733.257 718.885 718.994 C 733.184 704.731 733.184 681.326 718.885 667.063 L 563.931 512.366 L 721.079 355.109 C 735.451 340.48 735.451 317.44 721.079 302.811 L 721.079 302.811 Z" p-id="4635" /></svg>