<svg xmlns="http://www.w3.org/2000/svg" class="icon" viewBox="0 0 1024 1024" width="64" height="64" t="1571833761318" p-id="6922" version="1.1"><path d="M 404.384 510.336 l 194.656 -207.52 a 32 32 0 0 0 -2.752 -46.4 l -220.224 -184.896 A 32.032 32.032 0 0 0 323.456 96 v 334.048 L 150.208 258.176 a 31.968 31.968 0 1 0 -45.056 45.44 l 209.984 208.32 l -210.784 224.704 a 32.032 32.032 0 0 0 46.688 43.808 l 172.416 -183.84 v 360.896 a 32.064 32.064 0 0 0 32 32 a 31.936 31.936 0 0 0 23.232 -9.984 l 220.224 -232.192 a 32 32 0 0 0 -0.672 -44.736 l -193.856 -192.256 Z m -16.928 -345.664 l 141.76 119.008 l -141.76 151.168 V 164.672 Z m 0 712.608 V 583.68 l 143.488 142.336 l -143.488 151.264 Z M 694.848 341.792 a 32 32 0 0 0 -53.184 35.648 a 204.8 204.8 0 0 1 34.656 114.432 a 204.672 204.672 0 0 1 -34.624 114.4 a 31.968 31.968 0 1 0 53.12 35.648 a 268.512 268.512 0 0 0 45.504 -150.048 a 268.8 268.8 0 0 0 -45.472 -150.08 Z M 886.528 326.432 a 441.536 441.536 0 0 0 -41.152 -77.024 a 32 32 0 1 0 -53.184 35.616 a 379.648 379.648 0 0 1 64.16 211.744 a 380.512 380.512 0 0 1 -64.16 211.744 a 32.032 32.032 0 0 0 53.184 35.648 a 443.328 443.328 0 0 0 74.976 -247.36 c 0 -58.88 -11.392 -116.192 -33.824 -170.368 Z" p-id="6923" /></svg>