<svg xmlns="http://www.w3.org/2000/svg" class="icon" viewBox="0 0 1024 1024" width="16" height="16" t="1571835091590" p-id="8515" version="1.1"><path d="M 512.546 237.522 c -31.877 0 -57.755 25.877 -57.755 57.755 L 483.67 555.05 c 0 31.878 12.876 57.756 28.877 57.756 c 15.877 0 28.878 -25.753 28.878 -57.756 l 28.878 -259.773 c -0.125 -31.878 -26.003 -57.755 -57.756 -57.755 Z m 0 432.914 c -31.877 0 -57.755 25.877 -57.755 57.755 c 0 31.878 25.878 57.755 57.755 57.755 c 31.878 0 57.756 -25.752 57.756 -57.755 c -0.125 -31.878 -26.003 -57.755 -57.756 -57.755 Z" p-id="8516" /><path d="M 1024.22 511.796 c 0 -69.13 -13.501 -136.012 -40.254 -199.143 c -25.752 -61.005 -62.755 -115.635 -109.635 -162.64 c -47.004 -47.004 -101.759 -83.882 -162.64 -109.76 C 648.56 13.502 581.429 0 512.547 0 C 443.54 0 376.284 13.501 313.153 40.254 c -61.005 25.752 -115.635 62.755 -162.64 109.635 a 482.89 482.89 0 0 0 -11.125 11.5 c -10.001 10.127 -38.129 40.504 -64.381 84.508 c -13.001 21.252 -24.377 43.504 -34.128 66.631 C 16.752 369.658 3.375 430.04 1.125 492.295 C 0.25 501.795 0 511.296 0 520.672 c 0.125 27.753 3.625 55.255 8.626 82.508 c 0.375 2.125 0.875 4.25 1.25 6.375 c 13.001 67.256 39.128 130.387 77.632 187.767 c 38.503 57.505 87.133 105.51 144.388 143.013 c 55.38 36.254 116.386 61.13 181.641 74.007 c 65.256 12.751 131.137 12.876 196.143 0.375 c 48.755 -9.376 95.384 -25.752 139.263 -48.754 c 14.376 -7.251 28.502 -15.252 42.004 -24.253 c 4.625 -3 9.126 -6.125 13.5 -9.375 c 54.38 -37.754 100.135 -84.633 136.013 -139.638 a 536.01 536.01 0 0 0 32.628 -57.63 c 25.878 -51.88 36.128 -97.884 38.754 -110.76 c 8.125 -36.754 12.376 -74.382 12.376 -112.51 Z M 784.32 875.204 c -2 1 -4 2.126 -5.875 3.626 c -3.126 2.625 -6.501 5.125 -9.751 7.5 c -1.125 0.75 -2.25 1.625 -3.376 2.376 c -22.752 15.25 -46.629 28.377 -71.256 39.128 c -39.379 16.627 -81.632 27.503 -123.136 33.253 c -19.252 2.625 -38.754 4 -58.256 4 c -121.136 0 -235.146 -47.254 -320.779 -132.762 c -30.877 -30.752 -56.755 -65.255 -77.257 -102.509 c -2.75 -5.125 -5.5 -10.376 -8 -15.626 c -11.251 -23.002 -21.002 -47.255 -28.753 -72.132 c -12.501 -41.754 -19.002 -85.633 -19.002 -130.512 c 0 -5.75 0.125 -11.376 0.375 -17.001 v -0.25 c 2.75 -73.132 22.627 -143.263 57.88 -205.644 c 0.5 -0.75 0.876 -1.375 1.376 -2.125 a 338.046 338.046 0 0 1 5.625 -9.75 c 14.502 -24.003 31.378 -46.755 50.38 -67.882 c 2.5 -2.75 5 -5.5 7.626 -8.25 l 1 -1 c 0.75 -0.751 1.5 -1.501 2.125 -2.251 c 22.252 -23.002 47.004 -43.88 74.257 -62.13 c 100.759 -67.632 221.52 -91.884 340.405 -68.507 c 118.886 23.377 221.645 91.758 289.152 192.267 c 67.63 100.76 91.883 221.52 68.506 340.406 c -5.876 29.628 -14.502 58.38 -25.628 85.758 c 0 0.125 -0.125 0.25 -0.125 0.25 c -2 4.876 -4.125 9.626 -6.25 14.251 c -2 4.376 -4.125 8.751 -6.5 13.127 c -0.626 1.25 -1.25 2.625 -1.75 4 c -31.254 62.13 -76.383 116.136 -133.013 158.39 Z" p-id="8517" /></svg>