<svg xmlns="http://www.w3.org/2000/svg" class="icon" viewBox="0 0 1024 1024" width="128" height="128" t="1571837498151" p-id="12854" version="1.1"><path d="M 973.186 321.903 c -12.714 -71.4639 -43.4975 -131.681 -89.2375 -177.13 C 838.262 99.412 777.653 68.8538 705.651 56.1705 c -8.46438 -1.5104 -19.371 5.17325 -24.3446 14.7671 c -5.06163 9.59283 -2.27942 18.5928 6.15117 20.0663 l -0.090112 0.07168 c 67.5349 11.8211 124.128 40.5463 166.977 83.1048 c 42.882 42.5759 71.8193 98.8396 83.7028 165.885 c 1.46534 8.38861 10.5441 11.1186 20.3295 6.05286 c 2.64192 -1.38342 5.0473 -3.1785 7.0912 -5.2265 C 971.033 335.358 974.234 327.974 973.186 321.903 Z" p-id="12855" /><path d="M 801.419 226.42 c -26.967 -26.8022 -60.4815 -47.1562 -99.3884 -59.3725 c -7.8848 -2.4791 -18.9901 3.17952 -24.833 12.5583 c -5.89722 9.3225 -4.32128 19.0249 3.51027 21.504 c 35.5963 11.264 66.3962 29.8926 91.2466 54.5935 c 24.958 24.8105 43.7862 55.7261 55.3247 91.35 c 2.51494 7.78035 12.2655 9.36141 21.7231 3.44986 c 1.9712 -1.2032 3.76115 -2.6409 5.33709 -4.22195 c 6.1481 -6.07232 9.31328 -14.3544 7.34106 -20.5691 C 849.004 287.051 828.585 253.403 801.419 226.42 Z" p-id="12856" /><path d="M 339.326 91.0746 l -0.091136 -0.07168 c 8.42854 -1.47251 11.2138 -10.4735 6.15117 -20.0663 c -4.97357 -9.59386 -15.8812 -16.2775 -24.3446 -14.7671 c -72.0015 12.6833 -132.61 43.2415 -178.297 88.6006 c -45.7411 45.4513 -76.5256 105.668 -89.2396 177.132 c -1.04858 6.0713 2.15347 13.4554 7.72301 18.988 c 2.0439 2.048 4.4503 3.84512 7.09018 5.2265 c 9.78534 5.06573 18.8652 2.33574 20.3305 -6.05286 c 11.8825 -67.0454 40.8218 -123.309 83.7048 -165.885 C 215.198 131.621 271.79 102.896 339.326 91.0746 Z" p-id="12857" /><path d="M 345.981 201.108 c 7.83155 -2.4791 9.40646 -12.1815 3.50925 -21.504 c -5.84192 -9.37779 -16.9482 -15.0374 -24.832 -12.5583 c -38.9038 12.2173 -72.4193 32.5714 -99.3864 59.3725 c -27.1657 26.9834 -47.5863 60.631 -60.2644 99.2911 c -1.97325 6.21568 1.19398 14.4978 7.3431 20.5691 c 1.57389 1.58106 3.36384 3.01773 5.33504 4.22195 c 9.45971 5.91053 19.2082 4.3305 21.7221 -3.44986 c 11.5395 -35.6239 30.3677 -66.5395 55.3277 -91.35 C 279.586 231.001 310.387 212.372 345.981 201.108 Z" p-id="12858" /><path d="M 512.559 336.508 c -159.759 0 -289.278 128.644 -289.278 287.273 c 0 96.6676 48.1997 181.965 121.849 234.044 c -2.13402 2.1033 -3.96083 4.61722 -5.2439 7.52742 l -31.488 71.7701 c -5.28179 12.0013 -0.108544 25.7966 11.4842 30.8449 l 3.50925 1.49094 c 11.6111 5.08416 25.303 -0.576512 30.5848 -12.5399 l 31.5597 -71.7865 c 0.451584 -1.024 0.39936 -2.10432 0.704512 -3.1447 c 38.2177 18.4873 80.9564 29.14 126.317 29.14 c 45.3243 0 88.0271 -10.6527 126.207 -29.1041 l 23.0062 73.8345 c 3.90451 12.4836 16.8745 19.5809 28.9935 15.8259 l 3.65158 -1.09568 c 12.0986 -3.69766 18.7924 -16.9052 14.8675 -29.3519 l -23.3134 -74.8421 c -1.10387 -3.53792 -3.05766 -6.46554 -5.38931 -9.01939 c 73.2867 -52.1165 121.218 -137.197 121.218 -233.595 C 801.8 465.152 672.316 336.508 512.559 336.508 Z M 535.183 623.78 c 0 6.1993 -2.5129 12.1078 -7.0185 16.3482 L 403.152 758.012 c -4.33869 4.13184 -9.94611 6.19827 -15.5904 6.19827 c -5.9689 0 -11.9736 -2.37056 -16.4045 -7.02259 c -8.59238 -8.9815 -8.24934 -23.211 0.831488 -31.7983 L 489.895 614.134 L 489.895 422.612 c 0 -12.4314 10.1652 -22.4922 22.6796 -22.4922 s 22.6068 10.0608 22.6068 22.4922 L 535.181 623.78 L 535.183 623.78 Z" p-id="12859" /><path d="M 293.078 270.308 c -71.0451 47.9652 -38.5249 111.362 -21.4497 135.399 c 0 0 48.3256 -69.1999 153.645 -98.3747 C 425.273 307.332 364.593 221.965 293.078 270.308 Z" p-id="12860" /><path d="M 750.432 405.707 c 17.0209 -24.0374 49.5759 -87.4332 -21.4333 -135.399 c -71.4947 -48.342 -132.247 37.0237 -132.247 37.0237 C 702.122 336.508 750.432 405.707 750.432 405.707 Z" p-id="12861" /></svg>