<svg xmlns="http://www.w3.org/2000/svg" class="icon" viewBox="0 0 1024 1024" width="64" height="64" t="1571837603009" p-id="13672" version="1.1"><path d="M 63.239 707.87 c 0 -15.286 5.88 -29.522 16.564 -40.167 l 390.39 -389.696 c 1.393 -1.426 2.577 -2.54 3.846 -3.45 l 2.904 -2.304 c 11.416 -11.362 24.849 -16.945 39.069 -16.945 c 14.476 0 28.01 5.708 38.11 16.056 L 942.34 663.741 c 10.467 10.614 16.236 24.786 16.236 39.894 c 0 14.772 -5.6 28.726 -15.753 39.286 c -10.186 10.497 -24.39 16.54 -38.952 16.54 c -14.383 0 -28.01 -5.723 -38.367 -16.143 l -350.169 -353.97 l -359.429 358.486 c -10.31 10.249 -23.781 15.91 -37.993 15.91 c -14.89 0 -28.86 -6.051 -39.334 -17 c -9.89 -10.419 -15.34 -24.25 -15.34 -38.874 Z" p-id="13673" /></svg>