<svg xmlns="http://www.w3.org/2000/svg" class="icon" viewBox="0 0 1024 1024" width="16" height="16" t="1574674532751" p-id="3108" version="1.1"><path d="M 512 1016 c -277.92 0 -504 -226.08 -504 -504 S 234.096 8 512 8 S 1016 234.096 1016 512 S 789.92 1016 512 1016 Z m 0 -930.448 C 276.848 85.552 85.552 276.848 85.552 512 c 0 235.168 191.312 426.48 426.464 426.48 c 235.168 0 426.48 -191.312 426.48 -426.48 C 938.48 276.848 747.168 85.552 512 85.552 Z" p-id="3109" /><path d="M 260.208 589.52 a 58.096 58.096 0 0 1 -58.368 -57.936 a 58.128 58.128 0 0 1 57.936 -58.352 a 58.272 58.272 0 0 1 58.4 57.92 a 58.192 58.192 0 0 1 -57.968 58.368 Z M 492.832 589.52 a 58.096 58.096 0 0 1 -58.368 -57.936 a 58.128 58.128 0 0 1 57.936 -58.352 a 58.304 58.304 0 0 1 58.4 57.92 a 58.24 58.24 0 0 1 -57.968 58.368 Z M 725.456 589.52 a 58.08 58.08 0 0 1 -58.352 -57.936 a 58.08 58.08 0 0 1 57.92 -58.352 a 58.304 58.304 0 0 1 58.4 57.92 a 58.208 58.208 0 0 1 -57.968 58.368 Z" p-id="3110" /></svg>